<svg width="6" height="17" viewBox="0 0 6 17" fill="none" xmlns="http://www.w3.org/2000/svg">
<path d="M3 12.5625C4.17188 12.5625 5.1875 13.5781 5.1875 14.75C5.1875 15.9609 4.17188 16.9375 3 16.9375C1.78906 16.9375 0.8125 15.9609 0.8125 14.75C0.8125 13.5781 1.78906 12.5625 3 12.5625ZM3 6.3125C4.17188 6.3125 5.1875 7.32812 5.1875 8.5C5.1875 9.71094 4.17188 10.6875 3 10.6875C1.78906 10.6875 0.8125 9.71094 0.8125 8.5C0.8125 7.32812 1.78906 6.3125 3 6.3125ZM5.1875 2.25C5.1875 3.46094 4.17188 4.4375 3 4.4375C1.78906 4.4375 0.8125 3.46094 0.8125 2.25C0.8125 1.07812 1.78906 0.0625 3 0.0625C4.17188 0.0625 5.1875 1.07812 5.1875 2.25Z" fill="#383D42"/>
</svg>
