<svg width="24" height="24" viewBox="0 0 24 24" fill="none" xmlns="http://www.w3.org/2000/svg">
<path d="M15.75 2.5C15.0469 2.5 14.5 3.08594 14.5 3.75C14.5 4.45312 15.0469 5 15.75 5H17.7031L13.6016 9.14062C13.0938 9.60938 13.0938 10.4297 13.6016 10.8984C14.0703 11.4062 14.8906 11.4062 15.3594 10.8984L19.5 6.79688V8.75C19.5 9.45312 20.0469 10 20.75 10C21.4141 10 22 9.45312 22 8.75V3.75C22 3.08594 21.4141 2.5 20.75 2.5H15.75ZM10.3594 14.1406C9.89062 13.6328 9.07031 13.6328 8.60156 14.1406L4.5 18.2422V16.25C4.5 15.5859 3.91406 15 3.25 15C2.54688 15 2 15.5859 2 16.25V21.25C2 21.9531 2.54688 22.5 3.25 22.5H8.25C8.91406 22.5 9.5 21.9531 9.5 21.25C9.5 20.5859 8.91406 20 8.25 20H6.25781L10.3594 15.8984C10.8672 15.4297 10.8672 14.6094 10.3594 14.1406Z" fill="#383D42"/>
</svg>
