<svg width="14" height="13" viewBox="0 0 14 13" fill="none" xmlns="http://www.w3.org/2000/svg">
<path d="M12.8596 2.39844C13.3674 1.92969 13.3674 1.10938 12.8596 0.640625C12.3908 0.132812 11.5705 0.132812 11.1018 0.640625L7.0002 4.74219L2.85957 0.640625C2.39082 0.132812 1.57051 0.132812 1.10176 0.640625C0.593946 1.10938 0.593946 1.92969 1.10176 2.39844L5.20332 6.5L1.10176 10.6406C0.593946 11.1094 0.593946 11.9297 1.10176 12.3984C1.57051 12.9062 2.39082 12.9062 2.85957 12.3984L7.0002 8.29688L11.1018 12.3984C11.5705 12.9062 12.3908 12.9062 12.8596 12.3984C13.3674 11.9297 13.3674 11.1094 12.8596 10.6406L8.75801 6.5L12.8596 2.39844Z" fill="#383D42"/>
</svg>
